<svg width="24" height="24" viewBox="0 0 24 24" fill="none" xmlns="http://www.w3.org/2000/svg" data-reactroot="">
<path stroke-linejoin="round" stroke-linecap="round" stroke-miterlimit="10" stroke-width="1" stroke="#221b38" fill="#7D55FF" d="M21.3627 5.0201L16.0612 6.6501C17.4116 7.1001 18.5719 7.7801 19.4121 8.6101C19.8022 8.9701 20.2924 9.5501 20.5225 10.0301L21.9729 5.6501C22.1029 5.2701 21.7428 4.9101 21.3627 5.0201Z"></path>
<path stroke-linejoin="round" stroke-linecap="round" stroke-miterlimit="10" stroke-width="1" stroke="#221b38" fill="#7D55FF" d="M2.63727 5.0201L7.93882 6.6501C6.58842 7.1001 5.42808 7.7801 4.58784 8.6101C4.19773 8.9701 3.70758 9.5501 3.47752 10.0301L2.02709 5.6501C1.89705 5.2701 2.25716 4.9101 2.63727 5.0201Z"></path>
<path stroke-linejoin="round" stroke-linecap="round" stroke-miterlimit="10" stroke-width="1" stroke="#221b38" fill="#7D55FF" d="M11.9992 12.0401C11.9992 9.55009 9.98862 7.54009 7.4979 7.54009C6.30755 7.54009 5.23724 8.00009 4.427 8.76009C6.01747 7.10009 8.81828 6.00009 11.9992 6.00009C15.1801 6.00009 17.981 7.10009 19.5714 8.76009C18.7612 8.00009 17.6909 7.54009 16.5005 7.54009C14.0098 7.54009 11.9992 9.55009 11.9992 12.0401Z"></path>
<path stroke-linecap="round" stroke-miterlimit="10" stroke-width="1" stroke="#221b38" fill="#7D55FF" d="M12 12.0401C12 13.7901 10.9997 15.3101 9.53931 16.0501L12 19.0001L14.4607 16.0501C13.0003 15.3101 12 13.7901 12 12.0401Z"></path>
<path stroke-linejoin="round" stroke-linecap="round" stroke-miterlimit="10" stroke-width="1" stroke="#221b38" fill="#C4B6FF" d="M11.9997 12.0401C11.9997 14.5201 9.98911 16.5401 7.49838 16.5401C5.00766 16.5401 2.99707 14.5201 2.99707 12.0401C2.99707 9.5501 5.01766 7.5401 7.49838 7.5401C9.97911 7.5401 11.9997 9.5501 11.9997 12.0401Z"></path>
<path stroke-linejoin="round" stroke-linecap="round" stroke-miterlimit="10" stroke-width="1" stroke="#221b38" fill="#C4B6FF" d="M12 12.0401C12 14.5201 14.0106 16.5401 16.5013 16.5401C18.992 16.5401 21.0026 14.5201 21.0026 12.0401C21.0026 9.5501 18.982 7.5401 16.5013 7.5401C14.0106 7.5401 12 9.5501 12 12.0401Z"></path>
<path stroke-linejoin="round" stroke-linecap="round" stroke-miterlimit="10" stroke-width="1" stroke="#221b38" fill="#7D55FF" d="M8.49829 12.0401C8.49829 12.5901 8.04829 13.0401 7.49829 13.0401C6.94829 13.0401 6.49829 12.5901 6.49829 12.0401C6.49829 11.4901 6.94829 11.0401 7.49829 11.0401C8.04829 11.0401 8.49829 11.4901 8.49829 12.0401Z"></path>
<path stroke-linejoin="round" stroke-linecap="round" stroke-miterlimit="10" stroke-width="1" stroke="#221b38" fill="#7D55FF" d="M17.501 12.0401C17.501 12.5901 17.051 13.0401 16.501 13.0401C15.951 13.0401 15.501 12.5901 15.501 12.0401C15.501 11.4901 15.951 11.0401 16.501 11.0401C17.051 11.0401 17.501 11.4901 17.501 12.0401Z"></path>
</svg>